   424121310
   -1
   100
     424121310, E:\mystran17\mystran\howbuild\chase_feast_add\examples\midas_eigen08_cbeam_axis_debug_lanc_feast_interval.F06                                                                                                                                                   ,
     8.2,
   -1
   -1
   450
       1,
MIDAS EIGEN08 CBEAM MODAL CONVERSION. . ,                                                                                                                                                                                                                                                                                                                                                                                                                                                                                                                                                                                                                                                                                                                                                            
0,1,
0.,
0,
   -1
   -1
   451
   -1
   -1
   450
       2,
MIDAS EIGEN08 CBEAM MODAL CONVERSION. . ,                                                                                                                                                                                                                                                                                                                                                                                                                                                                                                                                                                                                                                                                                                                                                            
0,1,
0.,
0,
   -1
   -1
   451
   -1
   -1
   450
       3,
MIDAS EIGEN08 CBEAM MODAL CONVERSION. . ,                                                                                                                                                                                                                                                                                                                                                                                                                                                                                                                                                                                                                                                                                                                                                            
0,1,
0.,
0,
   -1
   -1
   451
   -1
   -1
   450
       4,
MIDAS EIGEN08 CBEAM MODAL CONVERSION. . ,                                                                                                                                                                                                                                                                                                                                                                                                                                                                                                                                                                                                                                                                                                                                                            
0,1,
0.,
0,
   -1
   -1
   451
   -1
   -1
   450
       5,
MIDAS EIGEN08 CBEAM MODAL CONVERSION. . ,                                                                                                                                                                                                                                                                                                                                                                                                                                                                                                                                                                                                                                                                                                                                                            
0,1,
0.,
0,
   -1
   -1
   451
   -1
   -1
